<?xml version="1.0" encoding="UTF-8"?>
<svg id="_레이어_2" data-name="레이어 2" xmlns="http://www.w3.org/2000/svg" viewBox="0 0 153.52 153.52">
  <defs>
    <style>
      .cls-1 {
        fill: #fff;
      }
    </style>
  </defs>
  <g id="Layer_1" data-name="Layer 1">
    <g>
      <rect class="cls-1" x="69.97" width="13.58" height="153.52" rx="4.58" ry="4.58"/>
      <g>
        <path class="cls-1" d="M103.46,11.16c1.79,1.79,1.79,4.69,0,6.48l-26.58,26.6-.1-.12-.12,.12-26.6-26.6c-1.79-1.79-1.79-4.69,0-6.48l3.12-3.12c1.79-1.79,4.69-1.79,6.48,0l13.87,13.87c1.79,1.79,4.69,1.79,6.48,0l13.85-13.86c1.79-1.79,4.69-1.79,6.48,0l3.11,3.11Z"/>
        <path class="cls-1" d="M50.06,142.37c-1.79-1.79-1.79-4.69,0-6.48l26.58-26.6,.1,.12,.12-.12,26.6,26.6c1.79,1.79,1.79,4.69,0,6.48l-3.12,3.12c-1.79,1.79-4.69,1.79-6.48,0l-13.87-13.87c-1.79-1.79-4.69-1.79-6.48,0l-13.85,13.86c-1.79,1.79-4.69,1.79-6.48,0l-3.11-3.11Z"/>
      </g>
      <rect class="cls-1" x="69.97" y="0" width="13.58" height="153.52" rx="4.58" ry="4.58" transform="translate(153.52 0) rotate(90)"/>
      <g>
        <path class="cls-1" d="M142.37,103.46c-1.79,1.79-4.69,1.79-6.48,0l-26.6-26.58,.12-.1-.12-.12,26.6-26.6c1.79-1.79,4.69-1.79,6.48,0l3.12,3.12c1.79,1.79,1.79,4.69,0,6.48l-13.87,13.87c-1.79,1.79-1.79,4.69,0,6.48l13.86,13.85c1.79,1.79,1.79,4.69,0,6.48l-3.11,3.11Z"/>
        <path class="cls-1" d="M11.15,50.06c1.79-1.79,4.69-1.79,6.48,0l26.6,26.58-.12,.1,.12,.12-26.6,26.6c-1.79,1.79-4.69,1.79-6.48,0l-3.12-3.12c-1.79-1.79-1.79-4.69,0-6.48l13.87-13.87c1.79-1.79,1.79-4.69,0-6.48l-13.86-13.85c-1.79-1.79-1.79-4.69,0-6.48l3.11-3.11Z"/>
      </g>
      <path class="cls-1" d="M40.1,113.43h0c-1.79-1.8-1.79-4.7,0-6.49L106.94,40.09c1.79-1.79,4.69-1.79,6.48,0h0c1.79,1.8,1.79,4.7,0,6.49L46.58,113.43c-1.79,1.79-4.69,1.79-6.48,0Z"/>
      <g>
        <path class="cls-1" d="M120.85,56.69c0,2.53-2.05,4.58-4.58,4.58h-23.92s0-.1,0-.1h-.12v-23.92c0-2.53,2.05-4.58,4.59-4.58h0c2.53,0,4.58,2.05,4.58,4.58v10.28c0,2.53,2.05,4.58,4.58,4.58h10.26c2.53,0,4.58,2.05,4.58,4.58h0Z"/>
        <path class="cls-1" d="M32.67,96.83c0-2.53,2.05-4.58,4.58-4.58h23.92s0,.1,0,.1h.12v23.92c0,2.53-2.05,4.58-4.59,4.58h0c-2.53,0-4.58-2.05-4.58-4.58v-10.28c0-2.53-2.05-4.58-4.58-4.58h-10.26c-2.53,0-4.58-2.05-4.58-4.58h0Z"/>
      </g>
      <path class="cls-1" d="M40.09,40.1h0c1.79-1.8,4.69-1.8,6.48,0L113.43,106.94c1.79,1.79,1.79,4.69,0,6.48h0c-1.79,1.8-4.69,1.8-6.48,0L40.09,46.58c-1.79-1.79-1.79-4.69,0-6.48Z"/>
      <g>
        <path class="cls-1" d="M96.83,120.85c-2.53,0-4.58-2.05-4.58-4.58v-23.92s.1,0,.1,0v-.12h23.92c2.53,0,4.58,2.05,4.58,4.59h0c0,2.54-2.05,4.59-4.58,4.59h-10.28c-2.53,0-4.58,2.05-4.58,4.58v10.26c0,2.53-2.05,4.58-4.58,4.58h0Z"/>
        <path class="cls-1" d="M56.69,32.67c2.53,0,4.58,2.05,4.58,4.58v23.92s-.1,0-.1,0v.12h-23.92c-2.53,0-4.58-2.05-4.58-4.59h0c0-2.54,2.05-4.59,4.58-4.59h10.28c2.53,0,4.58-2.05,4.58-4.58v-10.26c0-2.53,2.05-4.58,4.58-4.58h0Z"/>
      </g>
    </g>
  </g>
</svg>