<?xml version="1.0" encoding="UTF-8"?>
<svg id="_레이어_2" data-name="레이어 2" xmlns="http://www.w3.org/2000/svg" viewBox="0 0 98.66 124.45">
  <defs>
    <style>
      .cls-1 {
        fill: #b9d7ff;
      }
    </style>
  </defs>
  <g id="Layer_1" data-name="Layer 1">
    <g>
      <path class="cls-1" d="M1.36,104.69c-3.3,6.86-.41,15.1,6.45,18.39s15.1,.41,18.39-6.45c3.3-6.86-.22-31.36-.22-31.36,0,0-21.33,12.55-24.63,19.41Z"/>
      <path class="cls-1" d="M38.14,104.69c-3.3,6.86-.41,15.1,6.45,18.39,6.86,3.3,15.1,.41,18.39-6.45,3.3-6.86-.22-31.36-.22-31.36,0,0-21.33,12.55-24.63,19.41Z"/>
      <path class="cls-1" d="M53.83,72.22c3.3-6.86-.22-31.36-.22-31.36,0,0-21.33,12.55-24.63,19.41s-.41,15.1,6.45,18.39c6.86,3.3,15.1,.41,18.39-6.45Z"/>
      <path class="cls-1" d="M75.47,78.68c6.86,3.3,15.1,.41,18.39-6.45,3.3-6.86-.22-31.36-.22-31.36,0,0-21.33,12.55-24.63,19.41-3.3,6.86-.41,15.1,6.45,18.39Z"/>
      <path class="cls-1" d="M87.69,31.36c3.3-6.86-.22-31.36-.22-31.36,0,0-21.33,12.55-24.63,19.41-3.3,6.86-.41,15.1,6.45,18.4,6.86,3.3,15.1,.41,18.39-6.45Z"/>
      <path class="cls-1" d="M97.02,85.28s-21.33,12.55-24.63,19.41c-3.3,6.86-.41,15.1,6.45,18.39,6.86,3.3,15.1,.41,18.39-6.45,3.3-6.86-.22-31.36-.22-31.36Z"/>
    </g>
  </g>
</svg>