<?xml version="1.0" encoding="utf-8"?>
<!-- Generator: Adobe Illustrator 27.0.0, SVG Export Plug-In . SVG Version: 6.00 Build 0)  -->
<svg version="1.1" id="_레이어_2" xmlns="http://www.w3.org/2000/svg" xmlns:xlink="http://www.w3.org/1999/xlink" x="0px"
	 y="0px" viewBox="0 0 168.1 181.4" style="enable-background:new 0 0 168.1 181.4;" xml:space="preserve">
<style type="text/css">
	.st0{fill:#F2F2F4;}
</style>
<g id="Layer_1">
	<g>
		<path class="st0" d="M148.7,61.8c-0.1,0-0.2,0-0.2,0c1.5-3.6,2.4-7.5,2.4-11.6c0-16.2-13.1-29.4-29.3-29.4
			c-5.7,0-11.1,1.7-15.6,4.5C99.9,10.5,85.3,0,68.2,0C45.7,0,27.4,18.3,27.4,40.8c0,1.7,0.1,3.4,0.3,5c-0.1,0-0.2,0-0.3,0
			C12.3,45.8,0,58.1,0,73.2s12.3,27.4,27.4,27.4h121.3c10.7,0,19.4-8.7,19.4-19.4S159.5,61.8,148.7,61.8L148.7,61.8z"/>
		<circle class="st0" cx="46.5" cy="127.3" r="6"/>
		<circle class="st0" cx="84.1" cy="127.3" r="6"/>
		<circle class="st0" cx="84.1" cy="175.4" r="6"/>
		<circle class="st0" cx="64.1" cy="150.9" r="6"/>
		<path class="st0" d="M110.4,150.9c0,3.3-2.7,6-6,6s-6-2.7-6-6s2.7-6,6-6S110.4,147.5,110.4,150.9z"/>
		<circle class="st0" cx="121.6" cy="127.3" r="6"/>
	</g>
</g>
</svg>
