<?xml version="1.0" encoding="UTF-8"?>
<svg id="_레이어_2" data-name=" 레이어 2" xmlns="http://www.w3.org/2000/svg" viewBox="0 0 151.65 82.18">
  <defs>
    <style>
      .cls-1 {
        fill: #b9d7ff;
      }

      .cls-2 {
        fill: #efefef;
      }
    </style>
  </defs>
  <g id="Layer_1" data-name="Layer 1">
    <g>
      <path class="cls-1" d="M139.75,37.84h-.15c.96-2.22,1.48-4.58,1.48-7.09,0-9.9-8.06-17.96-17.96-17.96-3.55,0-6.8,1.03-9.53,2.73-3.77-9.09-12.71-15.52-23.13-15.52-13.82,0-25.05,11.23-25.05,25.05,0,1.03,.07,2.07,.22,3.1h-.22c-9.24,0-16.78,7.54-16.78,16.78s7.54,16.78,16.78,16.78h74.35c6.58,0,11.9-5.32,11.9-11.9s-5.32-11.97-11.9-11.97h0Z"/>
      <path class="cls-2" d="M109.89,53.51h-.15c1.11-2.66,1.77-5.54,1.77-8.57,0-11.97-9.68-21.73-21.65-21.73-4.21,0-8.2,1.26-11.53,3.33-4.51-11.01-15.3-18.7-27.94-18.7-16.63,0-30.15,13.52-30.15,30.15,0,1.26,.07,2.51,.22,3.7h-.22c-11.16,.07-20.25,9.09-20.25,20.25s9.09,20.25,20.25,20.25H109.97c7.91,0,14.34-6.43,14.34-14.34s-6.43-14.34-14.41-14.34h0Z"/>
    </g>
  </g>
</svg>