<?xml version="1.0" encoding="utf-8"?>
<!-- Generator: Adobe Illustrator 26.5.1, SVG Export Plug-In . SVG Version: 6.00 Build 0)  -->
<svg version="1.1" id="레이어_1" xmlns="http://www.w3.org/2000/svg" xmlns:xlink="http://www.w3.org/1999/xlink" x="0px"
	 y="0px" viewBox="0 0 230.8 267.1" style="enable-background:new 0 0 230.8 267.1;" xml:space="preserve">
<style type="text/css">
	.st0{clip-path:url(#SVGID_00000164487565145993608730000017365296038432691626_);fill-rule:evenodd;clip-rule:evenodd;}
</style>
<g>
	<g>
		<g>
			<defs>
				<rect id="SVGID_1_" x="1.1" y="1.1" width="228.6" height="265"/>
			</defs>
			<clipPath id="SVGID_00000047746690845812044270000004870280900056843453_">
				<use xlink:href="#SVGID_1_"  style="overflow:visible;"/>
			</clipPath>
			
				<path style="clip-path:url(#SVGID_00000047746690845812044270000004870280900056843453_);fill-rule:evenodd;clip-rule:evenodd;" d="
				M68.1,3.1C58.4,6,46.8,15.8,40.7,26.4c-7,12.3-9.3,25.2-13.8,75.3C20,180,13,223.7,5.1,239.3c-7.5,14.5-4.1,26.8,7.7,26.8
				c5.9,0,69.6-29,86.4-39.4c82.2-50.4,127.3-94.6,130.1-127.2c1.4-15.4-0.2-21.8-7.7-30.6C203.2,47.1,167,47.6,135.7,70
				c-6.1,4.3-11.3,7.5-11.8,7s0.5-8.4,1.8-17.7c1.8-12.2,1.8-19.3,0-26.3C119.1,9.2,93.3-4.3,68.1,3.1 M89.8,30.6
				c3.2,1.4,6.8,5,8.2,7.9c3.6,8.2-0.9,36-10.4,63c-4.5,12.5-8.4,27-8.4,32c-0.2,7.9,0.5,9.1,5,9.7c6.8,1.1,13.2-4.8,20-18.4
				c9.7-18.8,53-46.9,73.9-47.6c11.3-0.5,21.1,4.5,24.9,13.2c3.8,8.6-6.6,27.2-27.2,48.3c-20.6,20.6-83.9,64.4-113.3,78
				c-10.4,4.8-19.5,8.6-20.2,8.6s-0.5-4.3,0.2-9.7c4.5-28.2,8.1-62.4,11.5-108.2c2-28.1,4.5-54.9,5.9-59.4c2.3-9.1,13.4-20,20.2-20
				C82.6,28.1,86.9,29.2,89.8,30.6"/>
		</g>
	</g>
</g>
</svg>
