<?xml version="1.0" encoding="utf-8"?>
<!-- Generator: Adobe Illustrator 26.5.1, SVG Export Plug-In . SVG Version: 6.00 Build 0)  -->
<svg version="1.1" id="레이어_1" xmlns="http://www.w3.org/2000/svg" xmlns:xlink="http://www.w3.org/1999/xlink" x="0px"
	 y="0px" viewBox="0 0 200.3 363.4" style="enable-background:new 0 0 200.3 363.4;" xml:space="preserve">
<style type="text/css">
	
		.st0{clip-path:url(#SVGID_00000088827094662807108840000004535387666965944232_);fill-rule:evenodd;clip-rule:evenodd;stroke:#000000;stroke-width:8.3663;stroke-miterlimit:10;}
</style>
<g>
	<g>
		<defs>
			<rect id="SVGID_1_" y="-2.7" width="200.3" height="366.1"/>
		</defs>
		<clipPath id="SVGID_00000114037581254719977590000009883419921078988979_">
			<use xlink:href="#SVGID_1_"  style="overflow:visible;"/>
		</clipPath>
		
			<path style="clip-path:url(#SVGID_00000114037581254719977590000009883419921078988979_);fill-rule:evenodd;clip-rule:evenodd;stroke:#000000;stroke-width:8.3663;stroke-miterlimit:10;" d="
			M116.7,6.3c-28.2,3.4-29.9,3.4-31.2,2c-2.5-2.5-7.7-1.6-9.7,1.5c-1.9,3-43.3,98.8-43.3,100.4c0,0.4-5.9,15.5-13,33.4
			C-0.1,192.9,0,193,34.2,194.5c21.2,0.8,57.1,6,57.1,8.1c0,1.2-16.7,26.3-30.7,45.9c-22.3,31.5-41.5,65-46.8,81.7
			c-2,6.8-2.2,8.4-0.5,11.6c1.1,2,1.8,5.7,1.5,8.1c-0.1,2.5,0.5,4.9,1.8,5.9c4,3.3,8.2,0.5,15.6-10.4c4.1-6.2,20.5-24.6,38.6-43.5
			c17.4-18.1,38.7-41.8,47.5-52.7c19.7-24.5,57.2-68.9,67.8-80.4c6.4-6.8,7.9-9.5,7.9-13.2c0-2.7-1-5.5-2.3-6.7
			c-7.4-6.4-25.3-11.6-60-17.5c-14.2-2.5-26.2-4.5-26.4-4.8c-0.3-0.3,3.1-6.4,7.7-14c4.4-7.4,12.6-21.1,18.1-30.5
			c11.4-19.4,20.4-33.1,31.1-47.5c8.8-11.6,10.1-17.2,5.9-22.6c-1.5-2-5.2-4.4-7.9-5.2C155.4,5.6,126.2,5.2,116.7,6.3 M143.6,33.1
			c-8.9,12.6-13.3,19.7-36.1,58.6c-24.8,42-25.6,44-18.5,48.6c1.6,1,13.6,3.6,26.3,5.5c29.9,4.6,50.8,8.6,55.6,10.7l3.8,1.6
			l-19.8,24c-11.1,13.2-29.4,35.7-40.9,50c-11.5,14.4-28.2,33.7-37.1,43.1c-8.9,9.4-20.1,21.2-24.8,26.3c-4.8,4.9-8.6,8.6-8.6,8.1
			c0-1.4,23.8-37.6,41.1-62.4c7.3-10.5,15.6-23.1,18.5-28.1c2.9-4.9,7-11.1,9.2-13.7c6-7.5,4.5-15.3-3.4-17.1
			c-15.1-3.4-54.1-9.2-66.9-9.9c-8.9-0.4-16.2-1.1-16.2-1.4c0-0.8,16.3-42.2,39.3-99.9l21.5-53.7l14.4-0.5
			c7.9-0.1,22.7-0.5,32.6-0.7l18.2-0.3L143.6,33.1z"/>
	</g>
</g>
</svg>
