<?xml version="1.0" encoding="utf-8"?>
<!-- Generator: Adobe Illustrator 26.5.1, SVG Export Plug-In . SVG Version: 6.00 Build 0)  -->
<svg version="1.1" id="레이어_1" xmlns="http://www.w3.org/2000/svg" xmlns:xlink="http://www.w3.org/1999/xlink" x="0px"
	 y="0px" viewBox="0 0 290.8 309.8" style="enable-background:new 0 0 290.8 309.8;" xml:space="preserve">
<style type="text/css">
	
		.st0{clip-path:url(#SVGID_00000094617702132651977050000009324681266776722070_);fill-rule:evenodd;clip-rule:evenodd;stroke:#000000;stroke-width:9.1634;stroke-linejoin:round;stroke-miterlimit:10;}
</style>
<g>
	<g>
		<g>
			<defs>
				<polygon id="SVGID_1_" points="6.5,-1.2 285.2,-1.2 296.2,309.8 -2.6,309.8 				"/>
			</defs>
			<clipPath id="SVGID_00000027592754098368680650000005748272826457964967_">
				<use xlink:href="#SVGID_1_"  style="overflow:visible;"/>
			</clipPath>
			
				<path style="clip-path:url(#SVGID_00000027592754098368680650000005748272826457964967_);fill-rule:evenodd;clip-rule:evenodd;stroke:#000000;stroke-width:9.1634;stroke-linejoin:round;stroke-miterlimit:10;" d="
				M69.5,9.1c-1.5,1.5-2.5,5-2.5,7.8c0,9.6,4.4,38.8,9.6,64c2.8,13.7,6,30.8,7.2,38.1l1.9,12.8l-9.1,6.6
				c-10.3,7.4-22.4,20.4-50.6,54.5C9.9,212.2,6.5,217.2,6.5,221.1c0,13,15,13.9,96.6,5.8l8.9-0.9l1.8,10.8
				c2.1,12.5,8.9,36.7,14.5,51.5c7.5,19.8,18,21.4,26.6,4.4c4.6-9,20.2-47.6,27.3-67.9l5.6-15.5l9.3-1.6c5.2-0.9,25.4-3.1,44.8-5
				c19.5-1.8,37-4,39.1-5c3-1.3,3.8-3,4.1-7.8c0.4-5.5-0.1-6.8-5.2-11.8c-11.2-11.2-42.6-36.5-48.7-39.1c-6.8-3-7.2-4-4.7-8.9
				c0.9-1.6,3.2-8.4,5.2-15.2c1.9-6.8,7.8-23.9,13.1-38.2c5.3-14.5,9.6-27.4,9.6-28.9s-1.5-4.6-3.4-6.8c-3.1-3.5-4.1-3.8-9-3
				c-7.7,1.5-26.3,11.4-47.4,25.1c-9.7,6.3-19.8,12.5-22.3,13.9l-4.6,2.1l-25.6-20.9c-14.2-11.5-32.3-26.8-40.4-34.2
				C81.8,6,75.2,2.8,69.5,9.1 M130.9,74.6C147.7,88,154.9,92,162,92c2.8,0,5.6,0.6,6,1.5c3,4.9,14.8-0.3,42.6-18.6
				c10.3-6.9,19.2-12.4,19.3-12.1c0.3,0.3-2.2,7.1-5.3,15.2c-3.2,8.1-7.8,21.4-10.3,29.4c-2.7,8.1-6.2,18.3-8.1,22.6
				s-3.5,9.1-3.5,10.6c0,3.8,5.3,8.1,16.2,13c8.6,3.8,42,28.2,40.7,29.5c-0.1,0.2-12.2,1.5-26.7,2.7c-35.8,3-52.1,5.6-55.5,9
				c-1.5,1.6-4.9,9-7.7,16.7c-5.2,15-24.2,60.4-26.1,62.6c-1.9,2.2-11.7-34.5-13.9-52.7c-1.2-8.7-4.9-12.8-11.4-12.8
				c-2.7,0-14.5,1-26.3,2.2c-27.4,2.8-57.5,4.4-57.5,3.1c0-1,10.6-13.9,36-43.4c6.3-7.5,16.2-17.3,21.8-21.8c9.6-7.7,10-8.4,10-14.3
				c0-10-2.8-29.4-8.1-57.1c-2.8-14.2-5.5-29.5-6-33.9l-1-8.1l14.5,13.9C109.7,56.6,122.8,68.1,130.9,74.6"/>
		</g>
	</g>
</g>
</svg>
