<?xml version="1.0" encoding="utf-8"?>
<!-- Generator: Adobe Illustrator 26.5.1, SVG Export Plug-In . SVG Version: 6.00 Build 0)  -->
<svg version="1.1" id="레이어_1" xmlns="http://www.w3.org/2000/svg" xmlns:xlink="http://www.w3.org/1999/xlink" x="0px"
	 y="0px" viewBox="0 0 429.1 278.6" style="enable-background:new 0 0 429.1 278.6;" xml:space="preserve">
<style type="text/css">
	
		.st0{clip-path:url(#SVGID_00000048478139053279889440000003901842992033730209_);fill-rule:evenodd;clip-rule:evenodd;stroke:#000000;stroke-width:18.8242;stroke-linecap:round;stroke-linejoin:round;stroke-miterlimit:10;}
</style>
<g>
	<g>
		<g>
			<defs>
				<rect id="SVGID_1_" y="0.4" width="429.1" height="277.7"/>
			</defs>
			<clipPath id="SVGID_00000059298823313666590210000017164801026218614677_">
				<use xlink:href="#SVGID_1_"  style="overflow:visible;"/>
			</clipPath>
			
				<path style="clip-path:url(#SVGID_00000059298823313666590210000017164801026218614677_);fill-rule:evenodd;clip-rule:evenodd;stroke:#000000;stroke-width:18.8242;stroke-linecap:round;stroke-linejoin:round;stroke-miterlimit:10;" d="
				M164.3,11.6c-7.3,1-10.3,2-19.4,6.7c-10.9,5.5-18.4,13.3-27.2,28.1c-3.7,6.2-7.9,14.4-9.2,18.3c-2.1,6.2-2.5,8.4-2.5,16.9v9.7
				l-1.9-1.1c-1.1-0.5-4.5-1-7.6-1c-7.2,0-13.7,3.1-20.5,9.8c-9.2,9-13.1,19-10.8,27.6c0.7,2.5,1.5,5.2,1.9,6
				c0.5,1.4,0.1,1.5-3.7,1.5c-11,0-23.4,5-32.4,13.3c-6.8,6.2-14.6,17.8-17.9,26.6c-2.2,6.1-2.5,7.8-2.4,16.2
				c0.1,11,1.6,16.1,7.6,25.7c10,16.1,24.2,22.9,39.5,18.9c2.9-0.8,5.9-1.6,6.5-1.9c0.9-0.3,2.1,1.1,3.8,4.1
				c4.8,8.6,17.9,19.1,27.6,22.2c7.9,2.6,23.2,3.2,31.2,1.3c15.3-3.6,26.4-10,36.9-21.4l6.6-7.1l6.1,6.2c8,8,12.6,10.3,21.1,10.3
				c7.6,0,12.9-2.2,18.4-7.6l3.4-3.5l8.6,8.6c7.3,7.5,9.6,9.2,15.8,12.2c12.2,5.7,25.3,9.6,33.1,9.6c16.3-0.1,30.7-5.5,41.7-15.5
				c4.1-3.8,13.1-15.5,15.6-20.3c0.1-0.2,1.9,0.6,3.9,1.7c3.2,1.7,4.9,2,13.1,2c9.1,0,9.7-0.1,15.9-3.1c9.4-4.5,15.8-9.1,22.8-16.4
				c7.3-7.7,8.4-11,7.8-23.8c-0.4-8.8-2.2-13.7-6.2-16.9l-2.1-1.7l3.8-0.9c8.3-2,21-13.2,22.8-20c1.2-4.5,0.4-9.2-3.2-20.2
				c-5.6-17-11.2-24.6-21.6-29.4c-5.1-2.4-6.5-2.7-13-2.6c-6.4,0.1-11,1-20.6,4.2c-1.1,0.4-1.5-0.4-2-3.8c-0.7-5.5-7.6-19.2-13-25.9
				c-7.1-9-22.3-17.1-37.1-20.1C288.4,51.8,259,59,244,70.3c-2.5,2-4.7,3.3-4.8,3.2c-0.1-0.1-0.7-3.9-1.3-8.4
				c-2.2-16.5-8.3-29.2-18.2-38.1c-5.4-4.9-17.8-11-26.8-13.3C184.9,11.2,172.1,10.5,164.3,11.6 M189.8,22.7
				c10.8,3,18.7,7.4,25.1,13.8c8.9,9,12.7,18.6,16.6,41.9c0.7,4.5,1.8,8.6,2.5,9.3c1.5,1.5,5.3,0.6,6-1.5c0.9-2.7,9.2-9.8,15.5-13.1
				c12.2-6.3,30.5-10.6,42-9.8c8,0.6,17.9,3.6,25.5,7.9c8.8,4.9,14.1,11.1,19.9,23.4c2.9,6.1,3.2,7.1,3,13.3
				c-0.1,3.7,0.2,7.5,0.7,8.3c1.3,2.4,6,2,11.9-0.9c10.5-5.3,22.4-6.4,29.6-2.7c6.8,3.6,11.2,10.2,16.5,25.3
				c3.7,10.6,3.6,13.3-0.9,18.3c-2,2.1-6.3,5.7-9.7,7.9c-5.4,3.6-6,4.3-6,6.8c0,2.2-0.3,2.7-1.9,2.7c-3.1,0-4,2.8-1.9,5.5
				c4.3,5.4,5.6,19.1,2.6,25.8c-3.3,7.4-18.2,17.9-30.2,21.4c-5.9,1.7-11,1.1-15.8-1.8c-8-4.9-8.6-5-11-3.5c-1.2,0.9-2.6,2.8-3,4.7
				c-2.1,7.7-10.8,17.9-20.4,23.8c-8.4,5.3-15,7.3-26,7.8c-8.7,0.4-9.6,0.3-19.7-2.7c-14.2-4.3-19.1-7-29-16.3
				c-4.6-4.3-9.3-8-10.4-8.3c-1-0.3-2.8-0.7-3.8-1c-1.5-0.5-2.7,0.3-6.1,3.3c-11,10.3-18.7,9.3-31.7-4.2c-7.6-8-9.8-8.4-14.6-2.8
				c-1.7,2-6.2,6.8-10.1,10.8c-5.9,6-8.2,7.6-15,10.8c-4.4,2-10.5,4.4-13.6,5.1c-10,2.5-23.9,1.4-31.9-2.5
				c-5.6-2.7-15.8-11.2-20-16.6c-4.6-6.2-5.6-6.4-19.4-6.5c-10.7,0-12.3-0.2-15.5-1.9c-5.6-3-8.9-6.2-13.2-12.8
				c-5.6-8.6-7.1-14-6.7-23.5c0.3-7,0.7-8.3,4.4-15.7c6.8-13.8,18.1-24.1,30-27.6c5.7-1.6,12.8-1.4,21,0.9c3.8,0.9,5.1,1,6.8,0.2
				c3.8-1.8,3.3-4.9-1.3-10.1c-4.5-5.1-7.2-10.3-7.2-14c0-6.3,6.8-15.8,14.8-21.1c5.3-3.4,8.7-4.1,12.8-2.6c3.5,1.4,8.5,6.2,10.1,10
				c1.6,3.9,4,5.2,6.8,3.8c2.1-1.1,2.2-4.8,0.3-9.2c-6.2-14.3-5.8-27.6,0.9-41.7c4.4-9.1,14.4-23.7,19-27.7
				c5.1-4.5,18.1-11,24.2-12.1C169.2,19.9,182.4,20.6,189.8,22.7"/>
		</g>
	</g>
</g>
</svg>
